<mxfile host="app.diagrams.net" agent="Mozilla/5.0 (Windows NT 10.0; Win64; x64) AppleWebKit/537.36 (KHTML, like Gecko) Chrome/134.0.0.0 Safari/537.36 Edg/134.0.0.0" version="26.1.3">
  <diagram id="C5RBs43oDa-KdzZeNtuy" name="Page-1">
    <mxGraphModel dx="1666" dy="747" grid="1" gridSize="10" guides="1" tooltips="1" connect="1" arrows="1" fold="1" page="1" pageScale="1" pageWidth="827" pageHeight="1169" math="0" shadow="0">
      <root>
        <mxCell id="WIyWlLk6GJQsqaUBKTNV-0" />
        <mxCell id="WIyWlLk6GJQsqaUBKTNV-1" parent="WIyWlLk6GJQsqaUBKTNV-0" />
        <mxCell id="dy4T32KU-YCPCYOa9KEW-4" value="Entity&amp;lt;ID&amp;gt;" style="swimlane;fontStyle=1;align=center;verticalAlign=top;childLayout=stackLayout;horizontal=1;startSize=26;horizontalStack=0;resizeParent=1;resizeParentMax=0;resizeLast=0;collapsible=1;marginBottom=0;whiteSpace=wrap;html=1;" vertex="1" parent="WIyWlLk6GJQsqaUBKTNV-1">
          <mxGeometry x="125" y="30" width="160" height="110" as="geometry" />
        </mxCell>
        <mxCell id="dy4T32KU-YCPCYOa9KEW-5" value="id: ID" style="text;strokeColor=none;fillColor=none;align=left;verticalAlign=top;spacingLeft=4;spacingRight=4;overflow=hidden;rotatable=0;points=[[0,0.5],[1,0.5]];portConstraint=eastwest;whiteSpace=wrap;html=1;" vertex="1" parent="dy4T32KU-YCPCYOa9KEW-4">
          <mxGeometry y="26" width="160" height="26" as="geometry" />
        </mxCell>
        <mxCell id="dy4T32KU-YCPCYOa9KEW-6" value="" style="line;strokeWidth=1;fillColor=none;align=left;verticalAlign=middle;spacingTop=-1;spacingLeft=3;spacingRight=3;rotatable=0;labelPosition=right;points=[];portConstraint=eastwest;strokeColor=inherit;" vertex="1" parent="dy4T32KU-YCPCYOa9KEW-4">
          <mxGeometry y="52" width="160" height="8" as="geometry" />
        </mxCell>
        <mxCell id="dy4T32KU-YCPCYOa9KEW-7" value="+getId(): ID&lt;div&gt;+setId(newId): void&lt;/div&gt;" style="text;strokeColor=none;fillColor=none;align=left;verticalAlign=top;spacingLeft=4;spacingRight=4;overflow=hidden;rotatable=0;points=[[0,0.5],[1,0.5]];portConstraint=eastwest;whiteSpace=wrap;html=1;" vertex="1" parent="dy4T32KU-YCPCYOa9KEW-4">
          <mxGeometry y="60" width="160" height="50" as="geometry" />
        </mxCell>
        <mxCell id="dy4T32KU-YCPCYOa9KEW-8" value="" style="endArrow=classic;html=1;rounded=0;" edge="1" parent="WIyWlLk6GJQsqaUBKTNV-1">
          <mxGeometry width="50" height="50" relative="1" as="geometry">
            <mxPoint x="180" y="310" as="sourcePoint" />
            <mxPoint x="180" y="142" as="targetPoint" />
            <Array as="points">
              <mxPoint x="180" y="270" />
              <mxPoint x="180" y="220" />
            </Array>
          </mxGeometry>
        </mxCell>
        <mxCell id="dy4T32KU-YCPCYOa9KEW-9" value="HospitalEmployee: Integer" style="swimlane;fontStyle=1;align=center;verticalAlign=top;childLayout=stackLayout;horizontal=1;startSize=26;horizontalStack=0;resizeParent=1;resizeParentMax=0;resizeLast=0;collapsible=1;marginBottom=0;whiteSpace=wrap;html=1;" vertex="1" parent="WIyWlLk6GJQsqaUBKTNV-1">
          <mxGeometry x="100" y="310" width="190" height="180" as="geometry" />
        </mxCell>
        <mxCell id="dy4T32KU-YCPCYOa9KEW-10" value="-email: String&lt;div&gt;-password: String&lt;/div&gt;&lt;div&gt;-privilege: Privilege&lt;/div&gt;" style="text;strokeColor=none;fillColor=none;align=left;verticalAlign=top;spacingLeft=4;spacingRight=4;overflow=hidden;rotatable=0;points=[[0,0.5],[1,0.5]];portConstraint=eastwest;whiteSpace=wrap;html=1;" vertex="1" parent="dy4T32KU-YCPCYOa9KEW-9">
          <mxGeometry y="26" width="190" height="54" as="geometry" />
        </mxCell>
        <mxCell id="dy4T32KU-YCPCYOa9KEW-11" value="" style="line;strokeWidth=1;fillColor=none;align=left;verticalAlign=middle;spacingTop=-1;spacingLeft=3;spacingRight=3;rotatable=0;labelPosition=right;points=[];portConstraint=eastwest;strokeColor=inherit;" vertex="1" parent="dy4T32KU-YCPCYOa9KEW-9">
          <mxGeometry y="80" width="190" height="8" as="geometry" />
        </mxCell>
        <mxCell id="dy4T32KU-YCPCYOa9KEW-12" value="+getEmail(): String&lt;div&gt;+setEmail(newEmail): void&lt;/div&gt;&lt;div&gt;+getPrivilege(): Privilege&lt;/div&gt;&lt;div&gt;+setPrivilege(newPrivilege): void&lt;/div&gt;&lt;div&gt;+getPassword(): String&lt;/div&gt;" style="text;strokeColor=none;fillColor=none;align=left;verticalAlign=top;spacingLeft=4;spacingRight=4;overflow=hidden;rotatable=0;points=[[0,0.5],[1,0.5]];portConstraint=eastwest;whiteSpace=wrap;html=1;" vertex="1" parent="dy4T32KU-YCPCYOa9KEW-9">
          <mxGeometry y="88" width="190" height="92" as="geometry" />
        </mxCell>
        <mxCell id="dy4T32KU-YCPCYOa9KEW-13" value="&lt;div&gt;&lt;span style=&quot;background-color: transparent; color: light-dark(rgb(0, 0, 0), rgb(255, 255, 255));&quot;&gt;&amp;lt;&amp;lt;Enumeration&amp;gt;&amp;gt;&lt;/span&gt;&lt;/div&gt;&lt;span style=&quot;background-color: transparent; color: light-dark(rgb(0, 0, 0), rgb(255, 255, 255));&quot;&gt;Privilege&lt;/span&gt;" style="swimlane;fontStyle=0;childLayout=stackLayout;horizontal=1;startSize=30;fillColor=none;horizontalStack=0;resizeParent=1;resizeParentMax=0;resizeLast=0;collapsible=1;marginBottom=0;whiteSpace=wrap;html=1;" vertex="1" parent="WIyWlLk6GJQsqaUBKTNV-1">
          <mxGeometry x="30" y="676" width="140" height="108" as="geometry" />
        </mxCell>
        <mxCell id="dy4T32KU-YCPCYOa9KEW-14" value="ADMIN" style="text;strokeColor=none;fillColor=none;align=left;verticalAlign=top;spacingLeft=4;spacingRight=4;overflow=hidden;rotatable=0;points=[[0,0.5],[1,0.5]];portConstraint=eastwest;whiteSpace=wrap;html=1;" vertex="1" parent="dy4T32KU-YCPCYOa9KEW-13">
          <mxGeometry y="30" width="140" height="26" as="geometry" />
        </mxCell>
        <mxCell id="dy4T32KU-YCPCYOa9KEW-15" value="PHARMACIST" style="text;strokeColor=none;fillColor=none;align=left;verticalAlign=top;spacingLeft=4;spacingRight=4;overflow=hidden;rotatable=0;points=[[0,0.5],[1,0.5]];portConstraint=eastwest;whiteSpace=wrap;html=1;" vertex="1" parent="dy4T32KU-YCPCYOa9KEW-13">
          <mxGeometry y="56" width="140" height="26" as="geometry" />
        </mxCell>
        <mxCell id="dy4T32KU-YCPCYOa9KEW-16" value="MEDICAL_STAFF" style="text;strokeColor=none;fillColor=none;align=left;verticalAlign=top;spacingLeft=4;spacingRight=4;overflow=hidden;rotatable=0;points=[[0,0.5],[1,0.5]];portConstraint=eastwest;whiteSpace=wrap;html=1;" vertex="1" parent="dy4T32KU-YCPCYOa9KEW-13">
          <mxGeometry y="82" width="140" height="26" as="geometry" />
        </mxCell>
        <mxCell id="dy4T32KU-YCPCYOa9KEW-17" value="&lt;div&gt;&amp;lt;&amp;lt;Enumeration&amp;gt;&amp;gt;&lt;/div&gt;Status" style="swimlane;fontStyle=0;childLayout=stackLayout;horizontal=1;startSize=26;fillColor=none;horizontalStack=0;resizeParent=1;resizeParentMax=0;resizeLast=0;collapsible=1;marginBottom=0;whiteSpace=wrap;html=1;" vertex="1" parent="WIyWlLk6GJQsqaUBKTNV-1">
          <mxGeometry x="230" y="680" width="140" height="104" as="geometry" />
        </mxCell>
        <mxCell id="dy4T32KU-YCPCYOa9KEW-18" value="PENDING" style="text;strokeColor=none;fillColor=none;align=left;verticalAlign=top;spacingLeft=4;spacingRight=4;overflow=hidden;rotatable=0;points=[[0,0.5],[1,0.5]];portConstraint=eastwest;whiteSpace=wrap;html=1;" vertex="1" parent="dy4T32KU-YCPCYOa9KEW-17">
          <mxGeometry y="26" width="140" height="26" as="geometry" />
        </mxCell>
        <mxCell id="dy4T32KU-YCPCYOa9KEW-19" value="DELIVERED" style="text;strokeColor=none;fillColor=none;align=left;verticalAlign=top;spacingLeft=4;spacingRight=4;overflow=hidden;rotatable=0;points=[[0,0.5],[1,0.5]];portConstraint=eastwest;whiteSpace=wrap;html=1;" vertex="1" parent="dy4T32KU-YCPCYOa9KEW-17">
          <mxGeometry y="52" width="140" height="26" as="geometry" />
        </mxCell>
        <mxCell id="dy4T32KU-YCPCYOa9KEW-20" value="REJECTED" style="text;strokeColor=none;fillColor=none;align=left;verticalAlign=top;spacingLeft=4;spacingRight=4;overflow=hidden;rotatable=0;points=[[0,0.5],[1,0.5]];portConstraint=eastwest;whiteSpace=wrap;html=1;" vertex="1" parent="dy4T32KU-YCPCYOa9KEW-17">
          <mxGeometry y="78" width="140" height="26" as="geometry" />
        </mxCell>
        <mxCell id="dy4T32KU-YCPCYOa9KEW-21" value="Medicine: Integer" style="swimlane;fontStyle=1;align=center;verticalAlign=top;childLayout=stackLayout;horizontal=1;startSize=26;horizontalStack=0;resizeParent=1;resizeParentMax=0;resizeLast=0;collapsible=1;marginBottom=0;whiteSpace=wrap;html=1;" vertex="1" parent="WIyWlLk6GJQsqaUBKTNV-1">
          <mxGeometry x="720" y="190" width="230" height="200" as="geometry" />
        </mxCell>
        <mxCell id="dy4T32KU-YCPCYOa9KEW-22" value="-name: String&lt;div&gt;-type: String&lt;/div&gt;&lt;div&gt;-description: String&lt;/div&gt;" style="text;strokeColor=none;fillColor=none;align=left;verticalAlign=top;spacingLeft=4;spacingRight=4;overflow=hidden;rotatable=0;points=[[0,0.5],[1,0.5]];portConstraint=eastwest;whiteSpace=wrap;html=1;" vertex="1" parent="dy4T32KU-YCPCYOa9KEW-21">
          <mxGeometry y="26" width="230" height="54" as="geometry" />
        </mxCell>
        <mxCell id="dy4T32KU-YCPCYOa9KEW-23" value="" style="line;strokeWidth=1;fillColor=none;align=left;verticalAlign=middle;spacingTop=-1;spacingLeft=3;spacingRight=3;rotatable=0;labelPosition=right;points=[];portConstraint=eastwest;strokeColor=inherit;" vertex="1" parent="dy4T32KU-YCPCYOa9KEW-21">
          <mxGeometry y="80" width="230" height="8" as="geometry" />
        </mxCell>
        <mxCell id="dy4T32KU-YCPCYOa9KEW-24" value="+getName(): String&lt;div&gt;+setName(newName): void&lt;/div&gt;&lt;div&gt;+getType(): String&lt;/div&gt;&lt;div&gt;+setType(newType): void&lt;/div&gt;&lt;div&gt;+getDescription(): String&lt;/div&gt;&lt;div&gt;+setDescription(newDescription): void&lt;/div&gt;" style="text;strokeColor=none;fillColor=none;align=left;verticalAlign=top;spacingLeft=4;spacingRight=4;overflow=hidden;rotatable=0;points=[[0,0.5],[1,0.5]];portConstraint=eastwest;whiteSpace=wrap;html=1;" vertex="1" parent="dy4T32KU-YCPCYOa9KEW-21">
          <mxGeometry y="88" width="230" height="112" as="geometry" />
        </mxCell>
        <mxCell id="dy4T32KU-YCPCYOa9KEW-25" value="" style="endArrow=classic;html=1;rounded=0;exitX=0.465;exitY=-0.02;exitDx=0;exitDy=0;entryX=0.994;entryY=-0.06;entryDx=0;entryDy=0;entryPerimeter=0;exitPerimeter=0;" edge="1" parent="WIyWlLk6GJQsqaUBKTNV-1" source="dy4T32KU-YCPCYOa9KEW-21" target="dy4T32KU-YCPCYOa9KEW-7">
          <mxGeometry width="50" height="50" relative="1" as="geometry">
            <mxPoint x="390" y="460" as="sourcePoint" />
            <mxPoint x="310" y="204" as="targetPoint" />
            <Array as="points">
              <mxPoint x="830" y="150" />
              <mxPoint x="340" y="150" />
              <mxPoint x="340" y="87" />
            </Array>
          </mxGeometry>
        </mxCell>
        <mxCell id="dy4T32KU-YCPCYOa9KEW-26" value="Order: Integer" style="swimlane;fontStyle=1;align=center;verticalAlign=top;childLayout=stackLayout;horizontal=1;startSize=26;horizontalStack=0;resizeParent=1;resizeParentMax=0;resizeLast=0;collapsible=1;marginBottom=0;whiteSpace=wrap;html=1;" vertex="1" parent="WIyWlLk6GJQsqaUBKTNV-1">
          <mxGeometry x="414" y="310" width="210" height="190" as="geometry" />
        </mxCell>
        <mxCell id="dy4T32KU-YCPCYOa9KEW-27" value="-quantity: Integer&lt;div&gt;-status: Status&lt;/div&gt;&lt;div&gt;-orderDate: DateTime&lt;/div&gt;" style="text;strokeColor=none;fillColor=none;align=left;verticalAlign=top;spacingLeft=4;spacingRight=4;overflow=hidden;rotatable=0;points=[[0,0.5],[1,0.5]];portConstraint=eastwest;whiteSpace=wrap;html=1;" vertex="1" parent="dy4T32KU-YCPCYOa9KEW-26">
          <mxGeometry y="26" width="210" height="54" as="geometry" />
        </mxCell>
        <mxCell id="dy4T32KU-YCPCYOa9KEW-28" value="" style="line;strokeWidth=1;fillColor=none;align=left;verticalAlign=middle;spacingTop=-1;spacingLeft=3;spacingRight=3;rotatable=0;labelPosition=right;points=[];portConstraint=eastwest;strokeColor=inherit;" vertex="1" parent="dy4T32KU-YCPCYOa9KEW-26">
          <mxGeometry y="80" width="210" height="8" as="geometry" />
        </mxCell>
        <mxCell id="dy4T32KU-YCPCYOa9KEW-29" value="+getQuantity(): Integer&lt;div&gt;+setQuantity(newQuantity): void&lt;/div&gt;&lt;div&gt;+getStatus(): Status&lt;/div&gt;&lt;div&gt;+setStatus(newStatus): void&lt;/div&gt;&lt;div&gt;+getOrderDate(): DateTime&lt;/div&gt;&lt;div&gt;+setOrderDate(newOrderDate): void&lt;/div&gt;" style="text;strokeColor=none;fillColor=none;align=left;verticalAlign=top;spacingLeft=4;spacingRight=4;overflow=hidden;rotatable=0;points=[[0,0.5],[1,0.5]];portConstraint=eastwest;whiteSpace=wrap;html=1;" vertex="1" parent="dy4T32KU-YCPCYOa9KEW-26">
          <mxGeometry y="88" width="210" height="102" as="geometry" />
        </mxCell>
        <mxCell id="dy4T32KU-YCPCYOa9KEW-30" value="" style="endArrow=classic;html=1;rounded=0;exitX=0.5;exitY=0;exitDx=0;exitDy=0;entryX=0.994;entryY=1.08;entryDx=0;entryDy=0;entryPerimeter=0;" edge="1" parent="WIyWlLk6GJQsqaUBKTNV-1" source="dy4T32KU-YCPCYOa9KEW-26" target="dy4T32KU-YCPCYOa9KEW-7">
          <mxGeometry width="50" height="50" relative="1" as="geometry">
            <mxPoint x="390" y="460" as="sourcePoint" />
            <mxPoint x="440" y="410" as="targetPoint" />
          </mxGeometry>
        </mxCell>
        <mxCell id="dy4T32KU-YCPCYOa9KEW-31" value="&lt;div&gt;&amp;lt;&amp;lt;DataType&amp;gt;&amp;gt;&lt;/div&gt;DateTime" style="swimlane;fontStyle=0;childLayout=stackLayout;horizontal=1;startSize=26;fillColor=none;horizontalStack=0;resizeParent=1;resizeParentMax=0;resizeLast=0;collapsible=1;marginBottom=0;whiteSpace=wrap;html=1;" vertex="1" parent="WIyWlLk6GJQsqaUBKTNV-1">
          <mxGeometry x="420" y="664" width="140" height="120" as="geometry" />
        </mxCell>
        <mxCell id="dy4T32KU-YCPCYOa9KEW-32" value="+second: String&lt;div&gt;+minute: String&lt;/div&gt;&lt;div&gt;+hour: String&lt;/div&gt;&lt;div&gt;+day: String&lt;/div&gt;&lt;div&gt;+month: String&lt;/div&gt;&lt;div&gt;+year: String&lt;/div&gt;&lt;div&gt;&lt;br&gt;&lt;/div&gt;" style="text;strokeColor=none;fillColor=none;align=left;verticalAlign=top;spacingLeft=4;spacingRight=4;overflow=hidden;rotatable=0;points=[[0,0.5],[1,0.5]];portConstraint=eastwest;whiteSpace=wrap;html=1;" vertex="1" parent="dy4T32KU-YCPCYOa9KEW-31">
          <mxGeometry y="26" width="140" height="94" as="geometry" />
        </mxCell>
        <mxCell id="dy4T32KU-YCPCYOa9KEW-35" value="" style="endArrow=classic;html=1;rounded=0;exitX=0.005;exitY=-0.02;exitDx=0;exitDy=0;exitPerimeter=0;entryX=1.011;entryY=-0.033;entryDx=0;entryDy=0;entryPerimeter=0;" edge="1" parent="WIyWlLk6GJQsqaUBKTNV-1" source="dy4T32KU-YCPCYOa9KEW-29" target="dy4T32KU-YCPCYOa9KEW-12">
          <mxGeometry width="50" height="50" relative="1" as="geometry">
            <mxPoint x="390" y="460" as="sourcePoint" />
            <mxPoint x="440" y="410" as="targetPoint" />
          </mxGeometry>
        </mxCell>
        <mxCell id="dy4T32KU-YCPCYOa9KEW-36" value="1" style="text;html=1;align=center;verticalAlign=middle;resizable=0;points=[];autosize=1;strokeColor=none;fillColor=none;" vertex="1" parent="WIyWlLk6GJQsqaUBKTNV-1">
          <mxGeometry x="290" y="370" width="30" height="30" as="geometry" />
        </mxCell>
        <mxCell id="dy4T32KU-YCPCYOa9KEW-38" value="0...*" style="text;html=1;align=center;verticalAlign=middle;resizable=0;points=[];autosize=1;strokeColor=none;fillColor=none;" vertex="1" parent="WIyWlLk6GJQsqaUBKTNV-1">
          <mxGeometry x="380" y="390" width="40" height="30" as="geometry" />
        </mxCell>
        <mxCell id="dy4T32KU-YCPCYOa9KEW-39" value="+creator" style="text;html=1;align=center;verticalAlign=middle;resizable=0;points=[];autosize=1;strokeColor=none;fillColor=none;" vertex="1" parent="WIyWlLk6GJQsqaUBKTNV-1">
          <mxGeometry x="290" y="390" width="70" height="30" as="geometry" />
        </mxCell>
        <mxCell id="dy4T32KU-YCPCYOa9KEW-40" value="+creates" style="text;html=1;align=center;verticalAlign=middle;resizable=0;points=[];autosize=1;strokeColor=none;fillColor=none;" vertex="1" parent="WIyWlLk6GJQsqaUBKTNV-1">
          <mxGeometry x="350" y="370" width="70" height="30" as="geometry" />
        </mxCell>
        <mxCell id="dy4T32KU-YCPCYOa9KEW-42" value="" style="endArrow=classic;html=1;rounded=0;entryX=0.521;entryY=1.011;entryDx=0;entryDy=0;entryPerimeter=0;exitX=0.529;exitY=1.02;exitDx=0;exitDy=0;exitPerimeter=0;" edge="1" parent="WIyWlLk6GJQsqaUBKTNV-1" source="dy4T32KU-YCPCYOa9KEW-29" target="dy4T32KU-YCPCYOa9KEW-12">
          <mxGeometry width="50" height="50" relative="1" as="geometry">
            <mxPoint x="380" y="630" as="sourcePoint" />
            <mxPoint x="430" y="580" as="targetPoint" />
            <Array as="points">
              <mxPoint x="525" y="590" />
              <mxPoint x="200" y="590" />
            </Array>
          </mxGeometry>
        </mxCell>
        <mxCell id="dy4T32KU-YCPCYOa9KEW-43" value="1" style="text;html=1;align=center;verticalAlign=middle;resizable=0;points=[];autosize=1;strokeColor=none;fillColor=none;" vertex="1" parent="WIyWlLk6GJQsqaUBKTNV-1">
          <mxGeometry x="190" y="490" width="30" height="30" as="geometry" />
        </mxCell>
        <mxCell id="dy4T32KU-YCPCYOa9KEW-44" value="0...*" style="text;html=1;align=center;verticalAlign=middle;resizable=0;points=[];autosize=1;strokeColor=none;fillColor=none;" vertex="1" parent="WIyWlLk6GJQsqaUBKTNV-1">
          <mxGeometry x="490" y="500" width="40" height="30" as="geometry" />
        </mxCell>
        <mxCell id="dy4T32KU-YCPCYOa9KEW-45" value="+delivers" style="text;html=1;align=center;verticalAlign=middle;resizable=0;points=[];autosize=1;strokeColor=none;fillColor=none;" vertex="1" parent="WIyWlLk6GJQsqaUBKTNV-1">
          <mxGeometry x="330" y="560" width="70" height="30" as="geometry" />
        </mxCell>
        <mxCell id="dy4T32KU-YCPCYOa9KEW-46" value="+selectedOrders" style="text;html=1;align=center;verticalAlign=middle;resizable=0;points=[];autosize=1;strokeColor=none;fillColor=none;" vertex="1" parent="WIyWlLk6GJQsqaUBKTNV-1">
          <mxGeometry x="530" y="500" width="110" height="30" as="geometry" />
        </mxCell>
        <mxCell id="dy4T32KU-YCPCYOa9KEW-47" value="+pharmacist" style="text;html=1;align=center;verticalAlign=middle;resizable=0;points=[];autosize=1;strokeColor=none;fillColor=none;" vertex="1" parent="WIyWlLk6GJQsqaUBKTNV-1">
          <mxGeometry x="110" y="500" width="90" height="30" as="geometry" />
        </mxCell>
        <mxCell id="dy4T32KU-YCPCYOa9KEW-49" value="" style="endArrow=classic;html=1;rounded=0;exitX=1.024;exitY=0.265;exitDx=0;exitDy=0;exitPerimeter=0;entryX=0.496;entryY=1.009;entryDx=0;entryDy=0;entryPerimeter=0;" edge="1" parent="WIyWlLk6GJQsqaUBKTNV-1" source="dy4T32KU-YCPCYOa9KEW-29" target="dy4T32KU-YCPCYOa9KEW-24">
          <mxGeometry width="50" height="50" relative="1" as="geometry">
            <mxPoint x="630" y="430" as="sourcePoint" />
            <mxPoint x="680" y="380" as="targetPoint" />
            <Array as="points">
              <mxPoint x="834" y="430" />
            </Array>
          </mxGeometry>
        </mxCell>
        <mxCell id="dy4T32KU-YCPCYOa9KEW-50" value="1..*" style="text;html=1;align=center;verticalAlign=middle;resizable=0;points=[];autosize=1;strokeColor=none;fillColor=none;" vertex="1" parent="WIyWlLk6GJQsqaUBKTNV-1">
          <mxGeometry x="840" y="390" width="40" height="30" as="geometry" />
        </mxCell>
        <mxCell id="dy4T32KU-YCPCYOa9KEW-51" value="0...*" style="text;html=1;align=center;verticalAlign=middle;resizable=0;points=[];autosize=1;strokeColor=none;fillColor=none;" vertex="1" parent="WIyWlLk6GJQsqaUBKTNV-1">
          <mxGeometry x="624" y="400" width="40" height="30" as="geometry" />
        </mxCell>
        <mxCell id="dy4T32KU-YCPCYOa9KEW-52" value="+refers" style="text;html=1;align=center;verticalAlign=middle;resizable=0;points=[];autosize=1;strokeColor=none;fillColor=none;" vertex="1" parent="WIyWlLk6GJQsqaUBKTNV-1">
          <mxGeometry x="700" y="400" width="60" height="30" as="geometry" />
        </mxCell>
        <mxCell id="dy4T32KU-YCPCYOa9KEW-54" value="+medicines" style="text;html=1;align=center;verticalAlign=middle;resizable=0;points=[];autosize=1;strokeColor=none;fillColor=none;" vertex="1" parent="WIyWlLk6GJQsqaUBKTNV-1">
          <mxGeometry x="830" y="410" width="80" height="30" as="geometry" />
        </mxCell>
        <mxCell id="dy4T32KU-YCPCYOa9KEW-55" value="+referingMedicines" style="text;html=1;align=center;verticalAlign=middle;resizable=0;points=[];autosize=1;strokeColor=none;fillColor=none;" vertex="1" parent="WIyWlLk6GJQsqaUBKTNV-1">
          <mxGeometry x="620" y="430" width="130" height="30" as="geometry" />
        </mxCell>
        <mxCell id="dy4T32KU-YCPCYOa9KEW-60" value="Hospital" style="swimlane;fontStyle=1;align=center;verticalAlign=top;childLayout=stackLayout;horizontal=1;startSize=26;horizontalStack=0;resizeParent=1;resizeParentMax=0;resizeLast=0;collapsible=1;marginBottom=0;whiteSpace=wrap;html=1;" vertex="1" parent="WIyWlLk6GJQsqaUBKTNV-1">
          <mxGeometry x="460" y="30" width="160" height="52" as="geometry" />
        </mxCell>
        <mxCell id="dy4T32KU-YCPCYOa9KEW-61" value="+name: String" style="text;strokeColor=none;fillColor=none;align=left;verticalAlign=top;spacingLeft=4;spacingRight=4;overflow=hidden;rotatable=0;points=[[0,0.5],[1,0.5]];portConstraint=eastwest;whiteSpace=wrap;html=1;" vertex="1" parent="dy4T32KU-YCPCYOa9KEW-60">
          <mxGeometry y="26" width="160" height="26" as="geometry" />
        </mxCell>
        <mxCell id="dy4T32KU-YCPCYOa9KEW-65" value="1" style="text;html=1;align=center;verticalAlign=middle;resizable=0;points=[];autosize=1;strokeColor=none;fillColor=none;" vertex="1" parent="WIyWlLk6GJQsqaUBKTNV-1">
          <mxGeometry x="460" y="82" width="30" height="30" as="geometry" />
        </mxCell>
        <mxCell id="dy4T32KU-YCPCYOa9KEW-66" value="0..*" style="text;html=1;align=center;verticalAlign=middle;resizable=0;points=[];autosize=1;strokeColor=none;fillColor=none;" vertex="1" parent="WIyWlLk6GJQsqaUBKTNV-1">
          <mxGeometry x="230" y="280" width="40" height="30" as="geometry" />
        </mxCell>
        <mxCell id="dy4T32KU-YCPCYOa9KEW-67" value="+employer" style="text;html=1;align=center;verticalAlign=middle;resizable=0;points=[];autosize=1;strokeColor=none;fillColor=none;" vertex="1" parent="WIyWlLk6GJQsqaUBKTNV-1">
          <mxGeometry x="220" y="260" width="80" height="30" as="geometry" />
        </mxCell>
        <mxCell id="dy4T32KU-YCPCYOa9KEW-68" value="+job" style="text;html=1;align=center;verticalAlign=middle;resizable=0;points=[];autosize=1;strokeColor=none;fillColor=none;" vertex="1" parent="WIyWlLk6GJQsqaUBKTNV-1">
          <mxGeometry x="485" y="82" width="50" height="30" as="geometry" />
        </mxCell>
        <mxCell id="dy4T32KU-YCPCYOa9KEW-69" value="+woks at" style="text;html=1;align=center;verticalAlign=middle;resizable=0;points=[];autosize=1;strokeColor=none;fillColor=none;" vertex="1" parent="WIyWlLk6GJQsqaUBKTNV-1">
          <mxGeometry x="415" y="200" width="70" height="30" as="geometry" />
        </mxCell>
        <mxCell id="dy4T32KU-YCPCYOa9KEW-71" value="1" style="text;html=1;align=center;verticalAlign=middle;resizable=0;points=[];autosize=1;strokeColor=none;fillColor=none;" vertex="1" parent="WIyWlLk6GJQsqaUBKTNV-1">
          <mxGeometry x="620" y="30" width="30" height="30" as="geometry" />
        </mxCell>
        <mxCell id="dy4T32KU-YCPCYOa9KEW-72" value="0...*" style="text;html=1;align=center;verticalAlign=middle;resizable=0;points=[];autosize=1;strokeColor=none;fillColor=none;" vertex="1" parent="WIyWlLk6GJQsqaUBKTNV-1">
          <mxGeometry x="870" y="160" width="40" height="30" as="geometry" />
        </mxCell>
        <mxCell id="dy4T32KU-YCPCYOa9KEW-73" value="+has" style="text;html=1;align=center;verticalAlign=middle;resizable=0;points=[];autosize=1;strokeColor=none;fillColor=none;" vertex="1" parent="WIyWlLk6GJQsqaUBKTNV-1">
          <mxGeometry x="827" y="30" width="50" height="30" as="geometry" />
        </mxCell>
        <mxCell id="dy4T32KU-YCPCYOa9KEW-74" value="+inventory" style="text;html=1;align=center;verticalAlign=middle;resizable=0;points=[];autosize=1;strokeColor=none;fillColor=none;" vertex="1" parent="WIyWlLk6GJQsqaUBKTNV-1">
          <mxGeometry x="900" y="160" width="80" height="30" as="geometry" />
        </mxCell>
        <mxCell id="dy4T32KU-YCPCYOa9KEW-76" value="0...*" style="text;html=1;align=center;verticalAlign=middle;resizable=0;points=[];autosize=1;strokeColor=none;fillColor=none;" vertex="1" parent="WIyWlLk6GJQsqaUBKTNV-1">
          <mxGeometry x="560" y="280" width="40" height="30" as="geometry" />
        </mxCell>
        <mxCell id="dy4T32KU-YCPCYOa9KEW-77" value="+log" style="text;html=1;align=center;verticalAlign=middle;resizable=0;points=[];autosize=1;strokeColor=none;fillColor=none;" vertex="1" parent="WIyWlLk6GJQsqaUBKTNV-1">
          <mxGeometry x="600" y="275" width="50" height="30" as="geometry" />
        </mxCell>
        <mxCell id="dy4T32KU-YCPCYOa9KEW-78" value="+logs" style="text;html=1;align=center;verticalAlign=middle;resizable=0;points=[];autosize=1;strokeColor=none;fillColor=none;" vertex="1" parent="WIyWlLk6GJQsqaUBKTNV-1">
          <mxGeometry x="590" y="200" width="50" height="30" as="geometry" />
        </mxCell>
        <mxCell id="dy4T32KU-YCPCYOa9KEW-79" value="+hospital" style="text;html=1;align=center;verticalAlign=middle;resizable=0;points=[];autosize=1;strokeColor=none;fillColor=none;" vertex="1" parent="WIyWlLk6GJQsqaUBKTNV-1">
          <mxGeometry x="590" y="82" width="70" height="30" as="geometry" />
        </mxCell>
        <mxCell id="dy4T32KU-YCPCYOa9KEW-80" value="" style="endArrow=none;html=1;rounded=0;exitX=1.013;exitY=0.077;exitDx=0;exitDy=0;exitPerimeter=0;entryX=0.125;entryY=1.067;entryDx=0;entryDy=0;entryPerimeter=0;" edge="1" parent="WIyWlLk6GJQsqaUBKTNV-1" source="dy4T32KU-YCPCYOa9KEW-61" target="dy4T32KU-YCPCYOa9KEW-74">
          <mxGeometry width="50" height="50" relative="1" as="geometry">
            <mxPoint x="390" y="400" as="sourcePoint" />
            <mxPoint x="440" y="350" as="targetPoint" />
            <Array as="points">
              <mxPoint x="910" y="60" />
            </Array>
          </mxGeometry>
        </mxCell>
        <mxCell id="dy4T32KU-YCPCYOa9KEW-81" value="" style="endArrow=none;html=1;rounded=0;entryX=0.214;entryY=0.1;entryDx=0;entryDy=0;entryPerimeter=0;exitX=1.05;exitY=0.833;exitDx=0;exitDy=0;exitPerimeter=0;" edge="1" parent="WIyWlLk6GJQsqaUBKTNV-1" source="dy4T32KU-YCPCYOa9KEW-76" target="dy4T32KU-YCPCYOa9KEW-79">
          <mxGeometry width="50" height="50" relative="1" as="geometry">
            <mxPoint x="510" y="270" as="sourcePoint" />
            <mxPoint x="560" y="220" as="targetPoint" />
          </mxGeometry>
        </mxCell>
        <mxCell id="dy4T32KU-YCPCYOa9KEW-82" value="1" style="text;html=1;align=center;verticalAlign=middle;resizable=0;points=[];autosize=1;strokeColor=none;fillColor=none;" vertex="1" parent="WIyWlLk6GJQsqaUBKTNV-1">
          <mxGeometry x="580" y="98" width="30" height="30" as="geometry" />
        </mxCell>
        <mxCell id="dy4T32KU-YCPCYOa9KEW-83" value="" style="endArrow=none;html=1;rounded=0;exitX=0.647;exitY=-0.006;exitDx=0;exitDy=0;exitPerimeter=0;entryX=0.238;entryY=1.038;entryDx=0;entryDy=0;entryPerimeter=0;" edge="1" parent="WIyWlLk6GJQsqaUBKTNV-1" source="dy4T32KU-YCPCYOa9KEW-9" target="dy4T32KU-YCPCYOa9KEW-61">
          <mxGeometry width="50" height="50" relative="1" as="geometry">
            <mxPoint x="390" y="400" as="sourcePoint" />
            <mxPoint x="440" y="350" as="targetPoint" />
            <Array as="points">
              <mxPoint x="223" y="230" />
              <mxPoint x="500" y="230" />
            </Array>
          </mxGeometry>
        </mxCell>
      </root>
    </mxGraphModel>
  </diagram>
</mxfile>
